<svg width="250" height="250" viewBox="0 0 250 250" fill="none" xmlns="http://www.w3.org/2000/svg">
<path d="M170.833 85.6618L155.903 69.8529C154.514 68.3824 152.894 67.7059 151.042 67.8235C149.19 67.951 147.569 68.75 146.181 70.2206C144.792 71.6912 144.097 73.4069 144.097 75.3676C144.097 77.3284 144.792 79.0441 146.181 80.5147L161.111 96.3235C163.889 99.2647 167.13 100.735 170.833 100.735C174.537 100.735 177.778 99.2647 180.556 96.3235L214.931 59.5588C216.319 58.0882 217.014 56.3725 217.014 54.4118C217.014 52.451 216.319 50.7353 214.931 49.2647C213.542 47.7941 211.921 47.0588 210.069 47.0588C208.218 47.0588 206.597 47.7941 205.208 49.2647L170.833 85.6618ZM13.8889 250C9.9537 250 6.65741 248.588 4 245.765C1.33333 242.951 0 239.461 0 235.294C0 231.127 1.33333 227.637 4 224.824C6.65741 222 9.9537 220.588 13.8889 220.588H152.778C156.713 220.588 160.014 222 162.681 224.824C165.338 227.637 166.667 231.127 166.667 235.294C166.667 239.461 165.338 242.951 162.681 245.765C160.014 248.588 156.713 250 152.778 250H13.8889ZM180.556 147.059C161.343 147.059 144.968 139.887 131.431 125.544C117.884 111.211 111.111 93.8725 111.111 73.5294C111.111 53.1863 117.884 35.848 131.431 21.5147C144.968 7.17157 161.343 0 180.556 0C199.769 0 216.148 7.17157 229.694 21.5147C243.231 35.848 250 53.1863 250 73.5294C250 93.8725 243.231 111.211 229.694 125.544C216.148 139.887 199.769 147.059 180.556 147.059ZM13.8889 132.353C9.9537 132.353 6.65741 130.941 4 128.118C1.33333 125.304 0 121.814 0 117.647C0 113.48 1.33333 109.985 4 107.162C6.65741 104.348 9.9537 102.941 13.8889 102.941H87.5C89.1204 108.333 90.9722 113.48 93.0556 118.382C95.1389 123.284 97.6852 127.941 100.694 132.353H13.8889ZM13.8889 191.176C9.9537 191.176 6.65741 189.765 4 186.941C1.33333 184.127 0 180.637 0 176.471C0 172.304 1.33333 168.809 4 165.985C6.65741 163.172 9.9537 161.765 13.8889 161.765H130.556C135.88 165.196 141.551 168.074 147.569 170.397C153.588 172.73 159.954 174.387 166.667 175.368V176.471C166.667 180.637 165.338 184.127 162.681 186.941C160.014 189.765 156.713 191.176 152.778 191.176H13.8889Z" fill="black"/>
</svg>
