<svg width="250" height="250" viewBox="0 0 250 250" fill="none" xmlns="http://www.w3.org/2000/svg">
<path d="M75 250V236.111L100 208.333H25C18.125 208.333 12.2417 205.616 7.35 200.181C2.45 194.736 0 188.194 0 180.556V27.7778C0 20.1389 2.45 13.5972 7.35 8.15278C12.2417 2.71759 18.125 0 25 0H225C231.875 0 237.763 2.71759 242.663 8.15278C247.554 13.5972 250 20.1389 250 27.7778V180.556C250 188.194 247.554 194.736 242.663 200.181C237.763 205.616 231.875 208.333 225 208.333H150L175 236.111V250H75ZM25 138.889H225V27.7778H25V138.889Z" fill="black"/>
</svg>
