<svg width="267" height="289" viewBox="0 0 267 289" fill="none" xmlns="http://www.w3.org/2000/svg">
<path d="M76 194L26.5 244L0.5 288.5L36.5594 278.543C56.6809 272.987 74.5593 261.274 87.6882 245.045L103.5 225.5L112.649 235.777C130.171 255.459 154.753 267.429 181.053 269.086L267 274.5L183.725 231.773C175.613 227.61 168.108 222.358 161.42 216.162L124 181.5L95 110L55.5 120.5L76 194Z" fill="#00008B"/>
<path d="M41.344 65.5414L55.5 120.5L95 109.5L90.5 74L150 54.5L164.597 48.6313C186.023 40.0166 202.364 22.1193 209 0L49.5 51.5C43.3998 53.1637 39.7668 59.4183 41.344 65.5414Z" fill="#D22F27"/>
<path d="M196 116L194.533 121.722C189.176 142.615 174.09 159.652 154 167.5L123.5 179.5L109 144.5L196 116Z" fill="#7FA0CF"/>
<path d="M171 57L133 70.5L106 113.5L168.5 116.5L190 86L171 57Z" fill="#107DFE"/>
</svg>
