<svg width="178" height="220" viewBox="0 0 178 220" fill="none" xmlns="http://www.w3.org/2000/svg">
<path d="M47.5417 141.25H120.458M47.5417 172.5H84M162.125 5.8335H16.2917C13.529 5.8335 10.8795 6.93096 8.92597 8.88447C6.97247 10.838 5.875 13.4875 5.875 16.2502V203.75C5.875 206.513 6.97247 209.162 8.92597 211.116C10.8795 213.069 13.529 214.167 16.2917 214.167H162.125C164.888 214.167 167.537 213.069 169.491 211.116C171.444 209.162 172.542 206.513 172.542 203.75V16.2502C172.542 13.4875 171.444 10.838 169.491 8.88447C167.537 6.93096 164.888 5.8335 162.125 5.8335Z" stroke="black" stroke-width="10" stroke-linecap="round" stroke-linejoin="round"/>
<path d="M47.5416 47.5002H120.458V99.5836H47.5416V47.5002Z" stroke="black" stroke-width="10" stroke-linecap="round" stroke-linejoin="round"/>
</svg>
