<svg width="250" height="250" viewBox="0 0 250 250" fill="none" xmlns="http://www.w3.org/2000/svg">
<path d="M125 0C136.475 0 147.542 1.46484 158.203 4.39453C168.864 7.32422 178.833 11.5153 188.11 16.9678C197.388 22.4202 205.811 28.9307 213.379 36.499C220.947 44.0674 227.458 52.5309 232.91 61.8896C238.363 71.2484 242.554 81.2174 245.483 91.7969C248.413 102.376 249.919 113.444 250 125C250 136.475 248.535 147.542 245.605 158.203C242.676 168.864 238.485 178.833 233.032 188.11C227.58 197.388 221.069 205.811 213.501 213.379C205.933 220.947 197.469 227.458 188.11 232.91C178.752 238.363 168.783 242.554 158.203 245.483C147.624 248.413 136.556 249.919 125 250C113.525 250 102.458 248.535 91.7969 245.605C81.1361 242.676 71.167 238.485 61.8896 233.032C52.6123 227.58 44.1895 221.069 36.6211 213.501C29.0527 205.933 22.5423 197.469 17.0898 188.11C11.6374 178.752 7.44629 168.823 4.5166 158.325C1.58691 147.827 0.0813802 136.719 0 125C0 113.525 1.46484 102.458 4.39453 91.7969C7.32422 81.1361 11.5153 71.167 16.9678 61.8896C22.4202 52.6123 28.9307 44.1895 36.499 36.6211C44.0674 29.0527 52.5309 22.5423 61.8896 17.0898C71.2484 11.6374 81.1768 7.44629 91.6748 4.5166C102.173 1.58691 113.281 0.0813802 125 0ZM125 234.375C135.01 234.375 144.653 233.073 153.931 230.469C163.208 227.865 171.916 224.202 180.054 219.482C188.192 214.762 195.597 209.025 202.271 202.271C208.944 195.516 214.64 188.151 219.36 180.176C224.08 172.201 227.783 163.493 230.469 154.053C233.154 144.613 234.456 134.928 234.375 125C234.375 114.99 233.073 105.347 230.469 96.0693C227.865 86.792 224.202 78.0843 219.482 69.9463C214.762 61.8083 209.025 54.4027 202.271 47.7295C195.516 41.0563 188.151 35.3597 180.176 30.6396C172.201 25.9196 163.493 22.2168 154.053 19.5312C144.613 16.8457 134.928 15.5436 125 15.625C114.99 15.625 105.347 16.9271 96.0693 19.5312C86.792 22.1354 78.0843 25.7975 69.9463 30.5176C61.8083 35.2376 54.4027 40.9749 47.7295 47.7295C41.0563 54.4841 35.3597 61.849 30.6396 69.8242C25.9196 77.7995 22.2168 86.5072 19.5312 95.9473C16.8457 105.387 15.5436 115.072 15.625 125C15.625 135.01 16.9271 144.653 19.5312 153.931C22.1354 163.208 25.7975 171.916 30.5176 180.054C35.2376 188.192 40.9749 195.597 47.7295 202.271C54.4841 208.944 61.849 214.64 69.8242 219.36C77.7995 224.08 86.5072 227.783 95.9473 230.469C105.387 233.154 115.072 234.456 125 234.375ZM197.876 126.953L203.735 109.375H212.891L202.515 140.625H193.359L187.5 123.047L181.641 140.625H172.485L162.109 109.375H171.265L177.124 126.953L182.983 109.375H192.017L197.876 126.953ZM141.235 109.375H150.391L140.015 140.625H130.859L125 123.047L119.141 140.625H109.985L99.6094 109.375H108.765L114.624 126.953L120.483 109.375H129.517L135.376 126.953L141.235 109.375ZM78.7354 109.375H87.8906L77.5146 140.625H68.3594L62.5 123.047L56.6406 140.625H47.4854L37.1094 109.375H46.2646L52.124 126.953L57.9834 109.375H67.0166L72.876 126.953L78.7354 109.375Z" fill="black"/>
</svg>
